<?xml version="1.0" encoding="utf-8"?>
<!-- Generator: Adobe Illustrator 19.2.0, SVG Export Plug-In . SVG Version: 6.00 Build 0)  -->
<svg version="1.1" id="Capa_1" xmlns="http://www.w3.org/2000/svg" xmlns:xlink="http://www.w3.org/1999/xlink" x="0px" y="0px"
	 viewBox="0 0 20.4 18.6" style="enable-background:new 0 0 20.4 18.6;" xml:space="preserve">
<g>
	<path d="M18.2,0.6H2.2c-1,0-1.9,0.9-1.9,1.9s0.9,1.9,1.9,1.9h15.9c1,0,1.9-0.9,1.9-1.9S19.2,0.6,18.2,0.6z"/>
	<path d="M18.2,7.6H2.2c-1,0-1.9,0.9-1.9,1.9s0.9,1.9,1.9,1.9h15.9c1,0,1.9-0.9,1.9-1.9S19.2,7.6,18.2,7.6z"/>
	<path d="M18.2,14.6H2.2c-1,0-1.9,0.9-1.9,1.9s0.9,1.9,1.9,1.9h15.9c1,0,1.9-0.9,1.9-1.9S19.2,14.6,18.2,14.6z"/>
</g>
</svg>
